<?xml version="1.0" encoding="iso-8859-1"?>
<!-- Generator: Adobe Illustrator 19.0.0, SVG Export Plug-In . SVG Version: 6.00 Build 0)  -->
<svg version="1.1" id="Layer_1" xmlns="http://www.w3.org/2000/svg" xmlns:xlink="http://www.w3.org/1999/xlink" x="0px" y="0px"
	 viewBox="0 0 511.999 511.999" style="enable-background:new 0 0 511.999 511.999;" xml:space="preserve">
<polygon style="fill:#FFAC55;" points="503.742,417.137 288.095,40.417 225.757,40.416 421.234,439.159 "/>
<polygon style="fill:#FFCE6E;" points="142.084,363.149 110.916,439.159 443.255,417.137 412.085,363.149 "/>
<polygon style="fill:#FF8A3B;" points="132.937,417.593 256.925,202.836 225.756,148.849 192.723,148.849 39.425,471.581 
	472.572,471.581 503.742,417.593 "/>
<polygon style="fill:#FF6835;" points="225.756,40.417 8.258,417.133 39.425,471.124 225.756,148.394 349.746,363.149 
	412.085,363.149 "/>
<path d="M511.388,420.478c0.117-0.286,0.214-0.581,0.298-0.883c0.023-0.08,0.042-0.161,0.063-0.242
	c0.061-0.243,0.109-0.49,0.146-0.741c0.013-0.086,0.029-0.171,0.04-0.257c0.036-0.307,0.059-0.618,0.062-0.934
	c0-0.015,0.002-0.031,0.002-0.046c0-0.003,0-0.007,0-0.01c0-0.329-0.024-0.653-0.062-0.972c-0.01-0.08-0.024-0.159-0.036-0.238
	c-0.037-0.257-0.087-0.509-0.148-0.758c-0.02-0.079-0.039-0.157-0.061-0.237c-0.08-0.292-0.175-0.578-0.286-0.856
	c-0.01-0.025-0.018-0.052-0.028-0.076c-0.13-0.316-0.281-0.622-0.447-0.917c-0.009-0.015-0.014-0.033-0.023-0.048L295.262,36.542
	c-0.037-0.065-0.08-0.122-0.119-0.186c-0.089-0.148-0.179-0.294-0.279-0.435c-0.073-0.104-0.15-0.203-0.226-0.303
	c-0.084-0.109-0.167-0.218-0.255-0.322c-0.096-0.113-0.196-0.22-0.297-0.327c-0.08-0.085-0.16-0.168-0.242-0.249
	c-0.111-0.108-0.227-0.21-0.342-0.312c-0.086-0.074-0.171-0.148-0.259-0.218c-0.116-0.092-0.235-0.179-0.355-0.265
	c-0.101-0.073-0.204-0.143-0.308-0.211c-0.11-0.072-0.222-0.138-0.336-0.204c-0.123-0.072-0.248-0.142-0.375-0.207
	c-0.1-0.052-0.203-0.099-0.304-0.146c-0.144-0.067-0.288-0.131-0.437-0.189c-0.095-0.037-0.192-0.072-0.287-0.105
	c-0.155-0.055-0.312-0.107-0.471-0.152c-0.1-0.029-0.202-0.053-0.303-0.078c-0.154-0.037-0.308-0.074-0.466-0.104
	c-0.121-0.023-0.243-0.039-0.366-0.056c-0.138-0.019-0.275-0.039-0.416-0.051c-0.154-0.013-0.308-0.019-0.462-0.023
	c-0.087-0.002-0.172-0.013-0.26-0.013h-62.338c-0.039,0-0.076,0.007-0.115,0.008c-0.284,0.004-0.566,0.023-0.848,0.056
	c-0.073,0.009-0.144,0.015-0.216,0.025c-0.653,0.095-1.29,0.266-1.903,0.513c-0.07,0.029-0.14,0.059-0.209,0.09
	c-0.25,0.108-0.493,0.229-0.731,0.361c-0.052,0.029-0.105,0.055-0.155,0.085c-0.568,0.333-1.099,0.737-1.58,1.207
	c-0.054,0.053-0.106,0.108-0.159,0.162c-0.181,0.186-0.351,0.381-0.515,0.586c-0.054,0.067-0.11,0.133-0.162,0.203
	c-0.195,0.26-0.38,0.53-0.547,0.817c-0.003,0.006-0.008,0.011-0.011,0.017c-0.001,0.002-0.001,0.003-0.002,0.006L1.107,413.233
	c-1.475,2.554-1.475,5.702,0,8.258l31.167,53.99c0.01,0.018,0.023,0.033,0.034,0.051c0.174,0.296,0.363,0.585,0.575,0.86
	c0.001,0.001,0.001,0.001,0.002,0.002c0.2,0.26,0.421,0.505,0.654,0.742c0.048,0.05,0.098,0.097,0.148,0.144
	c0.196,0.189,0.403,0.37,0.62,0.542c0.052,0.042,0.102,0.085,0.155,0.124c0.265,0.199,0.54,0.389,0.835,0.559
	c0.292,0.168,0.59,0.309,0.892,0.438c0.023,0.01,0.045,0.023,0.068,0.033c1.025,0.427,2.099,0.635,3.162,0.635
	c0.017,0,0.033-0.003,0.05-0.003h433.105c2.951,0,5.676-1.575,7.151-4.129l31.17-53.987c0.011-0.02,0.019-0.042,0.031-0.062
	c0.166-0.294,0.318-0.596,0.448-0.911C511.378,420.508,511.382,420.492,511.388,420.478z M283.308,48.902L489.5,409.107h-41.476
	L240.059,48.902H283.308z M225.756,57.16l172.025,297.959h-43.268L232.907,144.492c-0.015-0.026-0.033-0.05-0.048-0.075
	c-0.089-0.151-0.186-0.296-0.285-0.442c-0.057-0.084-0.111-0.171-0.172-0.251c-0.094-0.128-0.196-0.249-0.297-0.372
	c-0.076-0.091-0.149-0.185-0.228-0.272c-0.087-0.097-0.183-0.187-0.275-0.281c-0.103-0.104-0.205-0.209-0.313-0.306
	c-0.078-0.07-0.161-0.135-0.242-0.203c-0.132-0.11-0.263-0.22-0.401-0.322c-0.075-0.055-0.154-0.105-0.231-0.157
	c-0.15-0.102-0.301-0.204-0.457-0.295c-0.025-0.015-0.047-0.033-0.074-0.047c-0.066-0.039-0.134-0.067-0.201-0.104
	c-0.145-0.078-0.29-0.155-0.439-0.225c-0.118-0.055-0.236-0.104-0.355-0.152c-0.124-0.051-0.248-0.101-0.374-0.146
	c-0.141-0.051-0.284-0.094-0.426-0.137c-0.109-0.032-0.217-0.064-0.326-0.091c-0.155-0.039-0.311-0.072-0.466-0.101
	c-0.105-0.02-0.21-0.04-0.316-0.055c-0.154-0.023-0.308-0.041-0.464-0.055c-0.115-0.011-0.229-0.02-0.345-0.025
	c-0.143-0.008-0.286-0.01-0.428-0.01c-0.13,0-0.26,0.002-0.39,0.009c-0.129,0.007-0.255,0.017-0.383,0.029
	c-0.142,0.013-0.284,0.03-0.425,0.051c-0.119,0.018-0.236,0.039-0.353,0.062c-0.144,0.028-0.288,0.058-0.432,0.094
	c-0.12,0.03-0.239,0.065-0.358,0.1c-0.133,0.04-0.265,0.08-0.396,0.127c-0.137,0.048-0.27,0.102-0.403,0.157
	c-0.11,0.045-0.219,0.09-0.328,0.141c-0.157,0.073-0.312,0.154-0.465,0.238c-0.061,0.033-0.123,0.059-0.183,0.094
	c-0.023,0.013-0.044,0.03-0.067,0.043c-0.163,0.096-0.322,0.202-0.479,0.309c-0.07,0.048-0.143,0.095-0.213,0.145
	c-0.143,0.105-0.28,0.218-0.415,0.333c-0.076,0.064-0.155,0.126-0.229,0.192c-0.11,0.1-0.215,0.208-0.32,0.315
	c-0.09,0.09-0.183,0.179-0.268,0.273c-0.08,0.089-0.155,0.184-0.231,0.277c-0.1,0.121-0.201,0.241-0.294,0.368
	c-0.059,0.081-0.115,0.168-0.172,0.252c-0.098,0.145-0.196,0.29-0.285,0.44c-0.015,0.025-0.033,0.048-0.048,0.075L39.426,454.836
	l-21.633-37.474L225.756,57.16z M335.441,355.119H178.408l78.517-135.994L335.441,355.119z M467.804,463.094H53.729l172.026-297.958
	l21.634,37.472L125.786,413.233c-0.725,1.256-1.107,2.683-1.107,4.132c0,4.562,3.696,8.258,8.258,8.258h54.653
	c4.562,0,8.258-3.696,8.258-8.258c0-4.562-3.696-8.258-8.258-8.258h-40.351l21.635-37.472h180.863c0.006,0,0.011,0.001,0.017,0.001
	s0.011-0.001,0.017-0.001h57.548l21.634,37.472H220.622c-4.562,0-8.258,3.696-8.258,8.258c0,4.562,3.696,8.258,8.258,8.258h222.623
	c0.006,0,0.011,0.001,0.017,0.001c0.005,0,0.011-0.001,0.017-0.001h46.159L467.804,463.094z"/>
<g>
</g>
<g>
</g>
<g>
</g>
<g>
</g>
<g>
</g>
<g>
</g>
<g>
</g>
<g>
</g>
<g>
</g>
<g>
</g>
<g>
</g>
<g>
</g>
<g>
</g>
<g>
</g>
<g>
</g>
</svg>
