<?xml version="1.0" encoding="iso-8859-1"?>
<!-- Generator: Adobe Illustrator 19.0.0, SVG Export Plug-In . SVG Version: 6.00 Build 0)  -->
<svg version="1.1" id="Layer_1" xmlns="http://www.w3.org/2000/svg" xmlns:xlink="http://www.w3.org/1999/xlink" x="0px" y="0px"
	 viewBox="0 0 512.001 512.001" style="enable-background:new 0 0 512.001 512.001;" xml:space="preserve">
<polygon style="fill:#FFD15B;" points="256,42.841 173.549,185.992 338.452,185.992 "/>
<polygon style="fill:#FF4A2B;" points="501.551,469.16 419.7,327.053 92.3,327.053 10.449,469.16 "/>
<polygon style="fill:#F29C0B;" points="338.452,185.992 173.549,185.992 92.3,327.053 419.7,327.053 "/>
<path d="M294.609,337.502h-0.139c-5.771,0-10.449-4.678-10.449-10.449s4.678-10.449,10.449-10.449h0.139
	c5.771,0,10.449,4.678,10.449,10.449S300.38,337.502,294.609,337.502z"/>
<path d="M294.894,196.441h-0.139c-5.771,0-10.449-4.678-10.449-10.449s4.678-10.449,10.449-10.449h0.139
	c5.771,0,10.449,4.678,10.449,10.449S300.665,196.441,294.894,196.441z"/>
<path d="M510.606,463.944L265.055,37.626c-1.866-3.238-5.319-5.234-9.055-5.234c-3.737,0-7.189,1.996-9.055,5.234L1.394,463.944
	c-1.862,3.233-1.859,7.214,0.008,10.445s5.315,5.219,9.047,5.219h491.102c3.731,0,7.18-1.989,9.047-5.22
	S512.469,467.177,510.606,463.944z M28.526,458.711L98.34,337.502h161.926c5.771,0,10.449-4.678,10.449-10.449
	s-4.678-10.449-10.449-10.449h-149.89l69.212-120.163h80.961c5.771,0,10.449-4.678,10.449-10.449s-4.678-10.449-10.449-10.449
	h-68.924L256,63.777l145.624,252.828h-74.184c-5.771,0-10.449,4.678-10.449,10.449s4.678,10.449,10.449,10.449h86.221
	l69.813,121.208H28.526z"/>
<g>
</g>
<g>
</g>
<g>
</g>
<g>
</g>
<g>
</g>
<g>
</g>
<g>
</g>
<g>
</g>
<g>
</g>
<g>
</g>
<g>
</g>
<g>
</g>
<g>
</g>
<g>
</g>
<g>
</g>
</svg>
