<?xml version="1.0" encoding="iso-8859-1"?>
<!-- Generator: Adobe Illustrator 19.0.0, SVG Export Plug-In . SVG Version: 6.00 Build 0)  -->
<svg version="1.1" id="Capa_1" xmlns="http://www.w3.org/2000/svg" xmlns:xlink="http://www.w3.org/1999/xlink" x="0px" y="0px"
	 viewBox="0 0 512 512" style="enable-background:new 0 0 512 512;" xml:space="preserve">
<path style="fill:#E8E8E8;" d="M376.639,195.087H133.063V37.437c0-12.496,10.13-22.626,22.626-22.626h198.324
	c12.496,0,22.626,10.13,22.626,22.626v157.65H376.639z"/>
<path style="fill:#90DCA3;" d="M162.918,195.087V58.132c0-7.437,6.029-13.465,13.465-13.465h156.933
	c7.437,0,13.465,6.028,13.465,13.465v136.954L162.918,195.087L162.918,195.087z"/>
<path style="opacity:0.1;enable-background:new    ;" d="M373.795,95.787c-11.069-4.306-23.517-3.173-33.628,3.061
	c-30.526,18.821-57.448,42.943-79.495,71.227l-8.632,11.074L133.063,62.172v132.915h243.576V96.98
	C375.702,96.561,374.755,96.161,373.795,95.787z"/>
<rect x="215.401" y="273.363" transform="matrix(0.7071 -0.7071 0.7071 0.7071 -129.7886 276.438)" style="fill:#404B58;" width="106.791" height="43.05"/>
<path style="fill:#F78D9F;" d="M246.259,347.864l75.514-75.514l40.773,40.774c10.673,10.673,10.673,27.977,0,38.651l-36.864,36.864
	c-10.673,10.673-27.977,10.673-38.651,0L246.259,347.864z"/>
<rect x="53.098" y="143.231" transform="matrix(-0.7071 -0.7071 0.7071 -0.7071 152.0843 456.2478)" style="fill:#FDA75F;" width="234.871" height="106.791"/>
<rect x="152.743" y="79.193" transform="matrix(0.7071 -0.7071 0.7071 0.7071 -89.0871 178.182)" style="opacity:0.05;enable-background:new    ;" width="35.597" height="234.871"/>
<path style="fill:#FBE096;" d="M81.17,150.888l-3.979-15.717c-1.028-4.06,2.656-7.745,6.717-6.717l15.717,3.979
	c4.06,1.028,7.745-2.656,6.717-6.717l-3.979-15.717c-1.028-4.06,2.657-7.745,6.717-6.717l15.717,3.979
	c4.06,1.028,7.745-2.657,6.717-6.717l-6.256-24.711c-8.62-8.62-19.11-15.14-30.656-19.053L28.748,34.46
	C16.136,30.185,4.094,42.226,8.369,54.839l22.319,65.852c3.913,11.546,10.433,22.036,19.053,30.656l24.711,6.256
	C78.514,158.632,82.198,154.948,81.17,150.888z"/>
<path style="fill:#404B58;" d="M67.792,47.693L28.748,34.46C16.136,30.185,4.094,42.226,8.369,54.839l13.233,39.044L67.792,47.693z"
	/>
<path style="opacity:0.1;enable-background:new    ;" d="M325.683,388.637l14.039-14.039c-10.673,10.672-27.977,10.672-38.651,0
	l-40.773-40.773l-30.437-30.438l0,0l-166.08-166.08c-8.62-8.62-15.14-19.11-19.053-30.656L22.409,40.8
	c-0.822-2.426-1.036-4.83-0.763-7.102C12.108,34.844,4.917,44.653,8.369,54.839l22.319,65.852
	c3.913,11.546,10.433,22.036,19.053,30.656l166.08,166.079l0,0l30.437,30.438l40.774,40.774
	C297.705,399.311,315.01,399.311,325.683,388.637z"/>
<path style="fill:#FBE096;" d="M471.764,142.993c21.747-21.746,33.448-69.183,32.7-113.76c-0.137-8.16-7.878-14.002-15.762-11.89
	c-36.786,9.855-84.036,15.738-105.443,37.145c-24.44,24.44-24.44,64.065,0,88.505C407.699,167.432,447.324,167.432,471.764,142.993z
	"/>
<path style="opacity:0.1;enable-background:new    ;" d="M383.259,142.993c-0.235-0.234-0.452-0.48-0.682-0.717
	c24.116,14.845,56.114,11.834,77.013-9.066c21.747-21.747,33.448-69.183,32.7-113.76c-0.015-0.875-0.122-1.722-0.302-2.537
	c6.618,0.007,12.358,5.303,12.475,12.319c0.748,44.577-10.953,92.012-32.7,113.76C447.324,167.432,407.699,167.432,383.259,142.993z
	"/>
<g style="opacity:0.1;">
	<path d="M441.933,130.836c-2.57,0-5.073-1.322-6.472-3.698c-2.1-3.57-0.908-8.167,2.662-10.268
		c16.055-9.443,27.87-39.995,28.78-50.909c0.343-4.129,3.963-7.222,8.097-6.851c4.128,0.344,7.195,3.969,6.851,8.097
		c-1.264,15.172-14.784,50.041-36.123,62.593C444.535,130.502,443.225,130.836,441.933,130.836z"/>
	<path d="M396.418,94.738c-0.523,0-1.053-0.056-1.585-0.17c-4.05-0.871-6.626-4.859-5.755-8.909
		c3.568-16.594,21.809-27.112,30.955-30.355c3.906-1.382,8.192,0.657,9.575,4.561c1.385,3.904-0.657,8.191-4.561,9.575
		c-12.797,4.538-20.162,14.061-21.305,19.373C402.986,92.33,399.876,94.738,396.418,94.738z"/>
</g>
<path style="fill:#ED718B;" d="M258.046,325.338l76.664-59.758c28.284-22.047,52.406-48.969,71.227-79.495l0,0
	c6.233-10.11,7.366-22.558,3.061-33.628l0,0c-6.282-16.15-19.053-28.921-35.204-35.204l0,0c-11.069-4.306-23.517-3.173-33.628,3.061
	l0,0c-30.526,18.821-57.448,42.943-79.495,71.227l-59.759,76.663c-12.631,16.205-11.207,39.283,3.321,53.811l0,0
	C218.763,336.546,241.841,337.97,258.046,325.338z"/>
<path style="fill:#404B58;" d="M308.317,142.941c10.1-8.205,20.732-15.771,31.85-22.626l0,0c10.11-6.233,22.558-7.366,33.628-3.061
	l0,0c16.15,6.282,28.921,19.053,35.204,35.204l0,0c4.306,11.069,3.173,23.517-3.061,33.628l0,0
	c-6.855,11.118-14.42,21.75-22.626,31.851L308.317,142.941z"/>
<path style="opacity:0.1;enable-background:new    ;" d="M334.709,265.579l-76.664,59.758
	c-16.204,12.631-39.283,11.207-53.811-3.321l0,0c-2.285-2.286-4.245-4.783-5.879-7.432c14.188,8.748,32.723,8.087,46.379-2.557
	l76.664-59.759c28.284-22.047,52.406-48.969,71.227-79.495l0,0c6.233-10.11,7.366-22.558,3.061-33.628l0,0
	c-1.975-5.079-4.595-9.821-7.757-14.135c9.404,6.894,16.761,16.375,21.068,27.446l0,0c4.306,11.069,3.173,23.517-3.061,33.628l0,0
	C387.115,216.612,362.994,243.532,334.709,265.579z"/>
<path style="fill:#404B58;" d="M443.791,497.192H65.91c-20.688,0-37.461-16.771-37.461-37.461v-213.33
	c0-20.688,16.771-37.461,37.461-37.461h377.881c20.688,0,37.461,16.771,37.461,37.461v213.33
	C481.251,480.421,464.479,497.192,443.791,497.192z"/>
<path style="opacity:0.1;enable-background:new    ;" d="M477.35,229.757c-1.652-0.331-3.359-0.506-5.108-0.506H37.458
	c-1.749,0-3.456,0.176-5.108,0.506c-2.492,5.015-3.9,10.664-3.9,16.644V359.92c8.521,9.335,19.807,16.218,32.804,19.284
	l56.352,13.293c25.364,5.983,51.021,10.284,76.807,12.904v6.945c0,8.844,7.169,16.013,16.013,16.013h88.848
	c8.844,0,16.013-7.169,16.013-16.013v-6.945c25.785-2.62,51.443-6.921,76.807-12.904l56.352-13.293
	c0.216-0.051,0.427-0.111,0.642-0.164v80.692c0,20.688-16.771,37.461-37.461,37.461h32.161c20.689,0,37.461-16.772,37.461-37.461
	V246.401C481.251,240.421,479.843,234.773,477.35,229.757z"/>
<path style="fill:#79C6E4;" d="M448.447,345.041l-56.352,13.292c-90.258,21.29-184.232,21.29-274.49,0l-56.352-13.292
	c-29.111-6.867-49.681-32.852-49.681-62.763v-61.307c0-14.296,11.589-25.884,25.884-25.884h434.785
	c14.296,0,25.884,11.589,25.884,25.884v61.307C498.128,312.189,477.559,338.174,448.447,345.041z"/>
<path style="fill:#404B58;" d="M254.851,295.75L254.851,295.75c-10.734,0-19.436-8.702-19.436-19.435v-14.237
	c0-2.864,2.322-5.186,5.186-5.186H269.1c2.864,0,5.186,2.322,5.186,5.186v14.237C274.286,287.048,265.585,295.75,254.851,295.75z"/>
<path style="opacity:0.1;enable-background:new    ;" d="M472.242,195.087h-33.242c14.887,0,26.955,12.068,26.955,26.955v63.842
	c0,31.148-21.419,58.208-51.735,65.359l-58.682,13.842c-3.421,0.807-6.848,1.576-10.279,2.324
	c15.696-2.401,31.322-5.416,46.836-9.076l56.352-13.292c29.111-6.867,49.68-32.852,49.68-62.763v-61.307
	C498.128,206.676,486.538,195.087,472.242,195.087z"/>
<path style="fill:#FBE096;" d="M299.274,333.742h-88.848c-8.844,0-16.013,7.169-16.013,16.013v42.698
	c0,8.844,7.169,16.013,16.013,16.013h88.848c8.844,0,16.013-7.169,16.013-16.013v-42.698
	C315.289,340.911,308.119,333.742,299.274,333.742z"/>
<path d="M232.208,378.603h45.285c4.143,0,7.5-3.357,7.5-7.5s-3.357-7.5-7.5-7.5h-45.285c-4.143,0-7.5,3.357-7.5,7.5
	C224.708,375.246,228.065,378.603,232.208,378.603z M472.242,187.586h-58.53c3.194-5.993,4.964-12.612,5.275-19.31
	c2.817,0.342,5.64,0.521,8.454,0.521c18.368,0,36.334-7.21,49.625-20.501c22.044-22.042,35.741-68.827,34.897-119.19
	c-0.104-6.216-3.006-11.924-7.961-15.661c-4.954-3.735-11.238-4.956-17.241-3.347c-7.616,2.041-15.782,3.931-24.898,6.013
	c-4.038,0.922-6.565,4.943-5.642,8.981c0.922,4.038,4.944,6.563,8.981,5.642c9.266-2.116,17.575-4.039,25.441-6.147
	c2.064-0.553,3.598,0.285,4.327,0.835c0.729,0.55,1.958,1.793,1.994,3.937c0.769,45.783-11.49,89.317-30.504,108.33
	c-12.955,12.954-31.563,18.55-49.422,15.11c-0.317-1.029-0.658-2.051-1.05-3.061c-7.024-18.061-21.412-32.449-39.475-39.476
	c-1.009-0.392-2.032-0.734-3.061-1.05c-3.44-17.862,2.156-36.468,15.111-49.423c8.2-8.2,21.959-14.835,43.302-20.88
	c3.985-1.128,6.301-5.274,5.172-9.26c-1.128-3.984-5.273-6.302-9.26-5.172c-19.78,5.602-33.65,11.71-43.639,19.324v-6.366
	c0-16.611-13.515-30.126-30.126-30.126H155.688c-16.611,0-30.126,13.515-30.126,30.126v28.486
	c-8.38-7.147-18.133-12.714-28.554-16.247L31.156,27.358c-8.555-2.901-17.843-0.733-24.232,5.655
	c-6.391,6.39-8.559,15.675-5.658,24.233l22.319,65.852c4.26,12.568,11.471,24.171,20.853,33.554l30.935,30.935H37.458
	c-18.408,0-33.386,14.977-33.386,33.386v61.307c0,17.551,6.25,33.798,16.877,46.411v72.772c0,4.143,3.357,7.5,7.5,7.5
	c4.142,0,7.5-3.357,7.5-7.5V342.1c7.016,4.683,14.949,8.207,23.581,10.243l56.352,13.292c23.319,5.501,47.18,9.628,71.029,12.325
	v14.493c0,12.965,10.548,23.513,23.513,23.513h88.849c12.966,0,23.514-10.548,23.514-23.513V377.96
	c23.85-2.697,47.711-6.825,71.028-12.325l19.236-4.537c4.031-0.951,6.529-4.99,5.578-9.022c-0.951-4.033-4.989-6.53-9.021-5.578
	l-19.236,4.537c-22.191,5.235-44.888,9.202-67.585,11.834v-13.114c0-12.965-10.548-23.513-23.514-23.513h-88.849
	c-12.965,0-23.513,10.548-23.513,23.513v13.114c-22.697-2.632-45.394-6.599-67.586-11.834l-56.352-13.292
	c-11.234-2.65-20.992-8.459-28.439-16.357c-0.332-0.461-0.713-0.881-1.139-1.255c-8.997-10.133-14.323-23.435-14.323-37.851v-61.307
	c0-10.138,8.247-18.385,18.385-18.385h322.985c0.007,0,0.014,0.001,0.02,0.001c0.007,0,0.014-0.001,0.021-0.001h39.638
	c0.005,0,0.009,0.001,0.014,0.001s0.011-0.001,0.016-0.001h72.091c10.138,0,18.385,8.247,18.385,18.385v61.307
	c0,14.417-5.329,27.721-14.328,37.855c-0.422,0.372-0.801,0.789-1.13,1.246c-7.447,7.9-17.207,13.711-28.443,16.361
	c-4.032,0.951-6.529,4.99-5.578,9.021c0.951,4.033,4.992,6.53,9.021,5.578c8.632-2.036,16.566-5.56,23.582-10.244v117.634
	c0,16.52-13.44,29.96-29.96,29.96H65.91c-16.519,0-29.959-13.44-29.959-29.96v-17.488c0-4.143-3.358-7.5-7.5-7.5
	c-4.143,0-7.5,3.357-7.5,7.5v17.488c0,24.791,20.169,44.961,44.96,44.961h377.881c24.791,0,44.961-20.169,44.961-44.961V328.687
	c10.627-12.613,16.876-28.859,16.876-46.41v-61.307C505.628,202.563,490.65,187.586,472.242,187.586z M201.913,349.754
	c0-4.694,3.818-8.513,8.513-8.513h88.849c4.694,0,8.514,3.818,8.514,8.513v42.698c0,4.694-3.819,8.513-8.514,8.513h-88.849
	c-4.694,0-8.513-3.818-8.513-8.513V349.754z M140.562,37.437c0-8.341,6.785-15.126,15.126-15.126h198.323
	c8.341,0,15.126,6.785,15.126,15.126v22.536c-9.189,13.871-13.181,30.682-11.163,47.291c-1.235,0.058-2.467,0.169-3.693,0.326
	V58.132c0-11.56-9.405-20.965-20.965-20.965H176.383c-11.559,0-20.965,9.405-20.965,20.965v37.255l-14.856-14.855V37.437z
	 M15.472,52.432c-1.071-3.159-0.302-6.453,2.057-8.813c2.358-2.356,5.651-3.128,8.811-2.056l27.613,9.359L24.832,80.046
	L15.472,52.432z M69.921,137.011l3.167,12.51l-19.447-4.923c-7.079-7.494-12.541-16.552-15.848-26.314l-7.59-22.393l39.597-39.598
	l22.394,7.59c9.762,3.308,18.819,8.77,26.314,15.85l4.923,19.445l-12.511-3.168c-4.493-1.138-9.133,0.139-12.411,3.417
	c-3.277,3.278-4.555,7.918-3.417,12.411l3.168,12.511l-12.511-3.167c-4.493-1.137-9.134,0.139-12.411,3.417
	C70.06,127.878,68.783,132.518,69.921,137.011z M96.589,187.586L74.17,165.168c0.564,0.074,1.129,0.114,1.689,0.114
	c3.399,0,6.675-1.335,9.164-3.824c3.277-3.278,4.555-7.918,3.417-12.411l-3.167-12.51l12.51,3.167
	c4.495,1.137,9.133-0.14,12.41-3.416c3.278-3.277,4.557-7.917,3.419-12.412l-3.168-12.511l12.511,3.168
	c4.492,1.136,9.133-0.139,12.411-3.417c2.9-2.901,4.226-6.869,3.706-10.857l87.33,87.329H96.589V187.586z M254.245,187.586h-6.626
	l-77.2-77.199V58.132c0-3.289,2.676-5.965,5.965-5.965h156.934c3.289,0,5.965,2.676,5.965,5.965v54.097
	c-1.034,0.531-2.056,1.087-3.052,1.701c-31.392,19.355-58.805,43.917-81.474,73L254.245,187.586z M273.544,187.586
	c10.494-12.476,21.947-24.006,34.296-34.517l34.516,34.517H273.544z M399.552,182.15c-1.061,1.721-2.21,3.527-3.452,5.437h-32.53
	L319.584,143.6c7.86-6.019,16.031-11.666,24.519-16.9c8.063-4.971,18.146-5.888,26.973-2.455
	c14.152,5.505,25.427,16.779,30.931,30.932C405.44,164.003,404.523,174.086,399.552,182.15z M240.601,249.391
	c-6.995,0-12.687,5.691-12.687,12.686v14.237c0,14.853,12.083,26.936,26.936,26.936s26.936-12.083,26.936-26.936v-14.237
	c0-6.995-5.69-12.686-12.686-12.686L240.601,249.391L240.601,249.391z M266.786,276.315c0,6.581-5.354,11.936-11.936,11.936
	c-6.581,0-11.936-5.354-11.936-11.936v-11.923h23.871v11.923H266.786z M179.84,256.001v11.515c0,4.143,3.357,7.5,7.5,7.5
	c4.143,0,7.5-3.357,7.5-7.5v-11.515c0-4.143-3.357-7.5-7.5-7.5C183.197,248.501,179.84,251.859,179.84,256.001z M314.861,256.001
	v11.515c0,4.143,3.357,7.5,7.5,7.5s7.5-3.357,7.5-7.5v-11.515c0-4.143-3.357-7.5-7.5-7.5S314.861,251.859,314.861,256.001z"/>
<g>
</g>
<g>
</g>
<g>
</g>
<g>
</g>
<g>
</g>
<g>
</g>
<g>
</g>
<g>
</g>
<g>
</g>
<g>
</g>
<g>
</g>
<g>
</g>
<g>
</g>
<g>
</g>
<g>
</g>
</svg>
