<?xml version="1.0" encoding="iso-8859-1"?>
<!-- Generator: Adobe Illustrator 19.0.0, SVG Export Plug-In . SVG Version: 6.00 Build 0)  -->
<svg version="1.1" id="Capa_1" xmlns="http://www.w3.org/2000/svg" xmlns:xlink="http://www.w3.org/1999/xlink" x="0px" y="0px"
	 viewBox="0 0 512 512" style="enable-background:new 0 0 512 512;" xml:space="preserve">
<g>
	<g>
		<g>
			<path d="M232.208,378.603h45.285c4.143,0,7.5-3.357,7.5-7.5s-3.357-7.5-7.5-7.5h-45.285c-4.143,0-7.5,3.357-7.5,7.5
				S228.065,378.603,232.208,378.603z"/>
			<path d="M314.861,256.001v11.515c0,4.143,3.357,7.5,7.5,7.5s7.5-3.357,7.5-7.5v-11.515c0-4.143-3.357-7.5-7.5-7.5
				S314.861,251.859,314.861,256.001z"/>
			<path d="M179.84,256.001v11.515c0,4.143,3.357,7.5,7.5,7.5s7.5-3.357,7.5-7.5v-11.515c0-4.143-3.357-7.5-7.5-7.5
				S179.84,251.859,179.84,256.001z"/>
			<path d="M472.242,187.586h-58.53c3.194-5.993,4.964-12.612,5.275-19.31c2.817,0.342,5.64,0.521,8.454,0.521
				c18.368,0,36.334-7.21,49.625-20.501c22.044-22.042,35.741-68.827,34.896-119.19c-0.104-6.216-3.006-11.924-7.961-15.661
				c-4.954-3.735-11.238-4.956-17.241-3.347c-7.616,2.041-15.782,3.931-24.898,6.013c-4.038,0.922-6.565,4.943-5.642,8.981
				c0.922,4.038,4.944,6.563,8.981,5.642c9.266-2.116,17.575-4.039,25.441-6.147c2.064-0.553,3.598,0.285,4.327,0.835
				c0.729,0.55,1.958,1.793,1.994,3.937c0.769,45.783-11.49,89.317-30.505,108.33c-12.955,12.954-31.563,18.55-49.422,15.11
				c-0.317-1.029-0.658-2.051-1.05-3.061c-7.024-18.061-21.412-32.448-39.475-39.476c-1.009-0.392-2.032-0.734-3.061-1.05
				c-3.44-17.862,2.156-36.468,15.111-49.423c8.2-8.2,21.959-14.835,43.302-20.88c3.985-1.128,6.301-5.274,5.172-9.26
				c-1.128-3.984-5.273-6.302-9.26-5.172c-19.78,5.602-33.649,11.71-43.639,19.324v-6.366c0-16.611-13.515-30.126-30.126-30.126
				H155.688c-16.611,0-30.126,13.515-30.126,30.126v28.486c-8.38-7.147-18.133-12.714-28.554-16.247L31.156,27.358
				c-8.555-2.901-17.843-0.733-24.232,5.655c-6.391,6.39-8.559,15.675-5.658,24.233l22.319,65.852
				c4.26,12.568,11.471,24.171,20.853,33.554l30.935,30.935H37.458c-18.408,0-33.385,14.977-33.385,33.385v61.307
				c0,17.551,6.25,33.798,16.877,46.411v72.772c0,4.143,3.357,7.5,7.5,7.5c4.142,0,7.5-3.357,7.5-7.5V342.1
				c7.016,4.683,14.949,8.207,23.581,10.243l56.352,13.292c23.319,5.501,47.18,9.628,71.029,12.325v14.493
				c0,12.965,10.548,23.513,23.513,23.513h88.849c12.966,0,23.514-10.548,23.514-23.513V377.96
				c23.85-2.697,47.711-6.825,71.028-12.325l19.236-4.537c4.031-0.951,6.529-4.99,5.578-9.022c-0.951-4.033-4.989-6.53-9.021-5.578
				l-19.236,4.537c-22.191,5.235-44.888,9.202-67.585,11.834v-13.114c0-12.965-10.548-23.513-23.514-23.513h-88.849
				c-12.965,0-23.513,10.548-23.513,23.513v13.114c-22.697-2.632-45.394-6.599-67.586-11.834l-56.352-13.292
				c-11.234-2.65-20.992-8.459-28.439-16.357c-0.332-0.461-0.713-0.881-1.139-1.255c-8.997-10.133-14.323-23.435-14.323-37.851
				v-61.307c0-10.138,8.247-18.385,18.385-18.385h322.985c0.007,0,0.014,0.001,0.02,0.001c0.007,0,0.014-0.001,0.021-0.001h39.638
				c0.005,0,0.009,0.001,0.014,0.001s0.011-0.001,0.016-0.001h72.091c10.138,0,18.385,8.247,18.385,18.385v61.307
				c0,14.417-5.329,27.721-14.328,37.855c-0.422,0.372-0.801,0.789-1.13,1.246c-7.447,7.9-17.207,13.711-28.443,16.361
				c-4.032,0.951-6.529,4.99-5.578,9.021c0.951,4.033,4.992,6.53,9.021,5.578c8.632-2.036,16.566-5.56,23.582-10.244v117.634
				c0,16.52-13.44,29.96-29.96,29.96H65.91c-16.519,0-29.959-13.44-29.959-29.96v-17.488c0-4.143-3.358-7.5-7.5-7.5
				c-4.143,0-7.5,3.357-7.5,7.5v17.488c0,24.791,20.169,44.961,44.96,44.961h377.881c24.791,0,44.961-20.169,44.961-44.961V328.687
				c10.627-12.613,16.876-28.859,16.876-46.41v-61.307C505.628,202.563,490.65,187.586,472.242,187.586z M201.913,349.754
				c0-4.694,3.818-8.513,8.513-8.513h88.849c4.694,0,8.514,3.818,8.514,8.513v42.698c0,4.694-3.819,8.513-8.514,8.513h-88.849
				c-4.694,0-8.513-3.818-8.513-8.513V349.754z M140.562,37.437c0-8.341,6.785-15.126,15.126-15.126h198.323
				c8.341,0,15.126,6.785,15.126,15.126v22.536c-9.189,13.871-13.181,30.682-11.163,47.291c-1.235,0.058-2.467,0.169-3.693,0.326
				V58.132c0-11.56-9.405-20.965-20.965-20.965H176.383c-11.559,0-20.965,9.405-20.965,20.965v37.255l-14.856-14.855V37.437z
				 M15.472,52.432c-1.071-3.159-0.302-6.453,2.057-8.813c2.358-2.356,5.651-3.128,8.811-2.056l27.613,9.359L24.832,80.046
				L15.472,52.432z M73.338,124.6c-0.212,0.212-0.404,0.436-0.586,0.666c-2.823,3.225-3.896,7.542-2.831,11.745l3.167,12.51
				l-19.447-4.923c-7.079-7.494-12.541-16.552-15.848-26.314l-7.59-22.393l39.597-39.598l22.394,7.59
				c9.762,3.308,18.819,8.77,26.314,15.85l4.923,19.445l-12.511-3.168c-4.204-1.064-8.522,0.008-11.748,2.833
				c-0.229,0.181-0.452,0.372-0.664,0.584c-0.212,0.212-0.404,0.436-0.586,0.666c-2.823,3.225-3.896,7.542-2.831,11.745
				l3.168,12.511l-12.511-3.167c-4.205-1.064-8.523,0.008-11.748,2.834C73.772,124.198,73.549,124.389,73.338,124.6z
				 M96.589,187.587v-0.001L74.17,165.168c0.564,0.074,1.129,0.114,1.689,0.114c3.399,0,6.675-1.335,9.164-3.824
				c2.9-2.901,4.226-6.869,3.706-10.858l36.988,36.988H96.589z M146.932,187.586l-47.596-47.595c3.99,0.52,7.956-0.805,10.856-3.705
				c2.901-2.901,4.228-6.868,3.708-10.858l62.158,62.158H146.932z M197.275,187.586l-72.766-72.766
				c3.988,0.519,7.956-0.804,10.858-3.706c2.9-2.901,4.226-6.869,3.706-10.857l87.33,87.329H197.275z M254.245,187.586h-6.626
				l-77.2-77.199V58.132c0-3.289,2.676-5.965,5.965-5.965h156.934c3.289,0,5.965,2.676,5.965,5.965v54.097
				c-1.034,0.531-2.056,1.087-3.052,1.701c-31.393,19.355-58.805,43.917-81.474,73L254.245,187.586z M273.544,187.586
				c10.494-12.476,21.947-24.006,34.296-34.516l34.516,34.516H273.544z M399.552,182.15c-1.061,1.721-2.21,3.527-3.452,5.437H363.57
				L319.584,143.6c7.86-6.019,16.031-11.666,24.519-16.9c8.063-4.971,18.146-5.888,26.973-2.455
				c14.152,5.505,25.427,16.779,30.932,30.932C405.44,164.003,404.523,174.086,399.552,182.15z"/>
			<path d="M240.601,249.391c-6.995,0-12.687,5.691-12.687,12.686v14.237c0,14.853,12.083,26.936,26.936,26.936
				c14.853,0,26.936-12.083,26.936-26.936v-14.237c0-6.995-5.69-12.686-12.686-12.686H240.601z M254.85,288.251
				c-6.581,0-11.936-5.354-11.936-11.936v-11.923h23.871v11.923h0.001C266.786,282.896,261.432,288.251,254.85,288.251z"/>
		</g>
	</g>
</g>
<g>
</g>
<g>
</g>
<g>
</g>
<g>
</g>
<g>
</g>
<g>
</g>
<g>
</g>
<g>
</g>
<g>
</g>
<g>
</g>
<g>
</g>
<g>
</g>
<g>
</g>
<g>
</g>
<g>
</g>
</svg>
